<?xml version="1.0" encoding="UTF-8" standalone="no"?>
<svg xmlns="http://www.w3.org/2000/svg" width="1850" height="343" version="1.0">
  <path fill="#11589a" d="M529.38236 340.95476c-30.52408-2.40696-57.17602-9.15736-78.44613-19.86881-32.40491-16.31885-56.22239-43.77658-67.54366-77.867-8.71922-26.25517-9.42988-46.92659-2.54983-74.16857 11.40781-45.16993 40.39764-83.484266 86.57274-114.418666 29.35015-19.66275 59.18297-32.67212 96.08361-41.89974 42.58901-10.6500799 75.19236-11.3474299 118.38327-2.53209 74.44858 15.19509 117.36679 53.9172 125.08884 112.858936 1.6259 12.41034.57997 37.17915-2.11139 50-7.24424 34.50943-26.74893 67.6242-57.16905 97.06069-40.41062 39.10397-94.30174 62.58348-159.3084 69.40817-10.65082 1.11817-50.6486 2.08563-59 1.42708zm64.83838-80.8957c34.86477-4.57037 62.52372-17.83444 83.75705-40.16634 12.99817-13.67068 21.8549-28.97279 25.94947-44.8339 2.58781-10.02437 2.82577-27.14356.50041-36-7.72953-29.43887-33.06355-47.653456-75.08955-53.987666-17.99485-2.7122-32.27254-1.7777-53.06345 3.47312-34.73221 8.77173-66.06799 28.975916-82.52407 53.208576-12.99115 19.13031-18.36092 41.23359-14.42823 59.39013 2.08054 9.60551 8.93623 24.12108 14.60153 30.91584 12.3408 14.80112 30.67814 24.5115 52.79396 27.95658 11.80118 1.83833 33.65915 1.85841 47.50288.04366zm-447.33838 77.47441c-67.29169-11.97988-115.287881-47.60241-129.311896-95.97465-3.277454-11.30474-4.688145-23.16972-4.682216-39.38099.009144-25.00081 3.626311-44.16995 12.431447-65.88034C52.943142 68.187714 124.15124 18.050994 211.89747 4.9304441c10.0696-1.50569 23.09937-1.7645 105.73489-2.10026 51.8375-.21062 94.24927-.24534 94.24838-.07715-.00089.16818-4.43514 17.6307899-9.85389 38.8057899l-9.85228 38.5-82.39611.51954c-81.17957.51188-82.5577.55357-93.34137 2.82378-33.53302 7.05945-61.397 20.773646-79.55473 39.155546-10.14134 10.26654-16.65145 20.74823-21.11787 34.00113-2.84343 8.43711-3.25346 11.08301-3.66479 23.64876-.66056 20.17954 2.14679 32.05989 10.82159 45.79545 7.74897 12.26963 20.68757 21.9062 37.32545 27.79971 16.04123 5.68216 17.42582 5.75608 107.81192 5.75608h82.91433l-.62548 3.25c-.34401 1.7875-4.32212 19.675-8.84024 39.75l-8.21478 36.5-87.95506.17198c-81.94322.16022-88.67276.0442-98.45507-1.69733zm611.00402 1.27535c.01132-2.11312 28.93152-58.65541 36.18714-70.75 31.81082-53.02633 61.80528-84.48916 97.66286-102.44387 12.67093-6.34463 23.43473-9.44223 52.28942-15.04785 37.68015-7.32015 84.7331-17.30018 103.3565-21.92213 27.6032-6.85057 38.9626-11.28189 43.8697-17.11371 2.3257-2.76386 2.6303-3.98936 2.6303-10.58128 0-9.024306-1.7537-13.660866-6.1898-16.365526-3.2712-1.99435-4.7162-2.0182-122.51483-2.02189l-119.20468-.00374-.62847-3.75c-3.00103-17.90686-13.6964-34.46367-38.19475-59.12687-8.94708-9.00727-16.26741-16.5447699-16.26741-16.7499999 0-.20522 66.7125-.37048 148.25-.36724 162.05454.00645 155.90664-.19583 179.19054 5.89588 32.349 8.4633999 55.7271 24.7341699 66.541 46.3113499 5.8247 11.62233 7.3681 20.10835 6.7542 37.13812-.5566 15.440056-2.3584 24.077136-7.6991 36.905936-9.3545 22.47063-31.1409 44.42752-59.0367 59.49872-16.3485 8.8326-42.4441 17.58923-56.3252 18.90053-12.8109 1.21019-14.0047 5.79053-2.9257 11.22464 10.5742 5.18647 22.4319 13.59264 32.4298 22.99008 16.4426 15.4552 26.9307 32.20942 30.2302 48.29108 2.087 10.17215 3.0389 28.04142 2.1355 40.08777l-.7312 9.75h-115.0302l.6409-2.55351c3.1675-12.62046 4.4188-33.72898 2.5755-43.44844-2.8179-14.85908-32.43775-44.13911-56.14411-55.50009-8.92522-4.2773-11.83386-4.34852-19.57677-.47934-17.04509 8.51753-42.47991 43.22496-65.39189 89.23138l-6.34972 12.75h-56.26853c-30.94768 0-56.26671-.3375-56.2645-.75zm410.96342.0032c-.0179-.41426 16.9526-76.2407 37.7122-168.5032l37.7448-167.7499959h152.2877c83.7583 0 152.2878.22461 152.2878.49914 0 .45052-15.2469 70.8670799-16.5102 76.2508599l-.5279 2.25h-102.981c-56.6395 0-102.9809.13567-102.9809.30148s-2.475 12.63015-5.5 27.698516c-3.025 15.06837-5.5 27.7577-5.5 28.19852 0 .44081 38.25.80148 85 .80148s85.0096.3375 85.0213.75c.0117.4125-3.4758 16.61155-7.75 35.99789l-7.7713 35.24789-86.0552.00211-86.0551.00211-5.1949 24.34511c-2.8571 13.38981-5.1948 24.86481-5.1948 25.5 0 .8656 25.4249 1.15489 101.5 1.15489 96.0225 0 101.4968.09444 101.4411 1.75-.0325.9625-3.7518 18.4-8.2653 38.75l-8.2064 37-152.2347.2532c-83.7291.13927-152.2493-.08573-152.2672-.5zm342.0325-.57487c0-.92611 70.1342-302.666806 77.4994-333.4283259l.5387-2.25h49.0483c46.2487 0 49.018.09989 48.5164 1.75-.9652 3.17503-56.6028 252.9587759-56.6028 254.1169059 0 .83699 27.6999 1.13309 106 1.13309 58.3 0 106 .23675 106 .52611 0 .57636-13.1726 61.85672-15.6324 72.72389l-1.5279 6.75h-156.9199c-129.4074 0-156.9198-.23173-156.9198-1.32167z"/>
</svg>